<svg width="24" height="24" viewBox="0 0 24 24" fill="none" xmlns="http://www.w3.org/2000/svg">
<path fill-rule="evenodd" clip-rule="evenodd" d="M7.5 2.75C4.87665 2.75 2.75 4.87665 2.75 7.5V8C2.75 8.41421 2.41421 8.75 2 8.75C1.58579 8.75 1.25 8.41421 1.25 8V7.5C1.25 4.04822 4.04822 1.25 7.5 1.25H8C8.41421 1.25 8.75 1.58579 8.75 2C8.75 2.41421 8.41421 2.75 8 2.75H7.5ZM15.25 2C15.25 1.58579 15.5858 1.25 16 1.25H16.5C19.9518 1.25 22.75 4.04822 22.75 7.5V8C22.75 8.41421 22.4142 8.75 22 8.75C21.5858 8.75 21.25 8.41421 21.25 8V7.5C21.25 4.87665 19.1234 2.75 16.5 2.75H16C15.5858 2.75 15.25 2.41421 15.25 2ZM1.25 12C1.25 11.5858 1.58579 11.25 2 11.25H22C22.4142 11.25 22.75 11.5858 22.75 12C22.75 12.4142 22.4142 12.75 22 12.75H2C1.58579 12.75 1.25 12.4142 1.25 12ZM2 15.25C2.41421 15.25 2.75 15.5858 2.75 16V16.5C2.75 19.1234 4.87665 21.25 7.5 21.25H8C8.41421 21.25 8.75 21.5858 8.75 22C8.75 22.4142 8.41421 22.75 8 22.75H7.5C4.04822 22.75 1.25 19.9518 1.25 16.5V16C1.25 15.5858 1.58579 15.25 2 15.25ZM22 15.25C22.4142 15.25 22.75 15.5858 22.75 16V16.5C22.75 19.9518 19.9518 22.75 16.5 22.75H16C15.5858 22.75 15.25 22.4142 15.25 22C15.25 21.5858 15.5858 21.25 16 21.25H16.5C19.1234 21.25 21.25 19.1234 21.25 16.5V16C21.25 15.5858 21.5858 15.25 22 15.25Z" fill="#255EF3"/>
</svg>
