<svg width="24" height="25" viewBox="0 0 24 25" fill="none" xmlns="http://www.w3.org/2000/svg">
<path fill-rule="evenodd" clip-rule="evenodd" d="M8 3.25049C6.20507 3.25049 4.75 4.70556 4.75 6.50049C4.75 8.29541 6.20507 9.75049 8 9.75049C9.79493 9.75049 11.25 8.29541 11.25 6.50049C11.25 4.70556 9.79493 3.25049 8 3.25049ZM3.25 6.50049C3.25 3.87714 5.37665 1.75049 8 1.75049C10.6234 1.75049 12.75 3.87714 12.75 6.50049C12.75 9.12384 10.6234 11.2505 8 11.2505C5.37665 11.2505 3.25 9.12384 3.25 6.50049ZM14.25 2.50049C14.25 2.08627 14.5858 1.75049 15 1.75049C17.6234 1.75049 19.75 3.87714 19.75 6.50049C19.75 9.12384 17.6234 11.2505 15 11.2505C14.5858 11.2505 14.25 10.9147 14.25 10.5005C14.25 10.0863 14.5858 9.75049 15 9.75049C16.7949 9.75049 18.25 8.29541 18.25 6.50049C18.25 4.70556 16.7949 3.25049 15 3.25049C14.5858 3.25049 14.25 2.9147 14.25 2.50049ZM0.25 19.3005C0.25 16.2353 2.73482 13.7505 5.8 13.7505H10.2C13.2652 13.7505 15.75 16.2353 15.75 19.3005C15.75 21.482 13.9815 23.2505 11.8 23.2505H4.2C2.01848 23.2505 0.25 21.482 0.25 19.3005ZM5.8 15.2505C3.56325 15.2505 1.75 17.0637 1.75 19.3005C1.75 20.6536 2.8469 21.7505 4.2 21.7505H11.8C13.1531 21.7505 14.25 20.6536 14.25 19.3005C14.25 17.0637 12.4368 15.2505 10.2 15.2505H5.8ZM16.25 14.5005C16.25 14.0863 16.5858 13.7505 17 13.7505H18.2C21.2652 13.7505 23.75 16.2353 23.75 19.3005C23.75 21.482 21.9815 23.2505 19.8 23.2505H17C16.5858 23.2505 16.25 22.9147 16.25 22.5005C16.25 22.0863 16.5858 21.7505 17 21.7505H19.8C21.1531 21.7505 22.25 20.6536 22.25 19.3005C22.25 17.0637 20.4368 15.2505 18.2 15.2505H17C16.5858 15.2505 16.25 14.9147 16.25 14.5005Z" fill="#2563EB"/>
</svg>
