<svg xmlns="http://www.w3.org/2000/svg" width="24" height="25" viewBox="0 0 24 25" fill="none">
<mask id="mask0_14215_4661" style="mask-type:alpha" maskUnits="userSpaceOnUse" x="1" y="2" width="22" height="20">
<path fill-rule="evenodd" clip-rule="evenodd" d="M9.96644 2.25586H14.0336C15.4053 2.25585 16.4807 2.25585 17.3451 2.32647C18.2252 2.39838 18.9523 2.54724 19.6104 2.88257C20.6924 3.43384 21.572 4.31348 22.1233 5.39541C22.4586 6.05354 22.6075 6.78065 22.6794 7.6608C22.75 8.52514 22.75 9.60057 22.75 10.9723V13.0394C22.75 14.4111 22.75 15.4866 22.6794 16.3509C22.6075 17.2311 22.4586 17.9582 22.1233 18.6163C21.572 19.6982 20.6924 20.5779 19.6104 21.1291C18.9523 21.4645 18.2252 21.6133 17.3451 21.6852C16.4807 21.7559 15.4053 21.7559 14.0336 21.7559H9.96642C8.59471 21.7559 7.51928 21.7559 6.65494 21.6852C5.77479 21.6133 5.04769 21.4645 4.38955 21.1291C3.30762 20.5779 2.42798 19.6982 1.87671 18.6163C1.54138 17.9582 1.39252 17.2311 1.32061 16.3509C1.24999 15.4866 1.25 14.4111 1.25 13.0394V10.9723C1.25 9.60058 1.24999 8.52514 1.32061 7.6608C1.39252 6.78065 1.54138 6.05354 1.87671 5.39541C2.42798 4.31348 3.30762 3.43384 4.38955 2.88257C5.04769 2.54724 5.77479 2.39838 6.65494 2.32647C7.51929 2.25585 8.59472 2.25585 9.96644 2.25586ZM6.77708 3.82149C5.9897 3.88582 5.48197 4.00945 5.07054 4.21908C4.27085 4.62654 3.62068 5.27671 3.21322 6.0764C3.00359 6.48783 2.87996 6.99556 2.81563 7.78294C2.75058 8.57908 2.75 9.59335 2.75 11.0059V13.0059C2.75 14.4184 2.75058 15.4326 2.81563 16.2288C2.87996 17.0162 3.00359 17.5239 3.21322 17.9353C3.62068 18.735 4.27085 19.3852 5.07054 19.7926C5.48197 20.0023 5.9897 20.1259 6.77708 20.1902C7.57322 20.2553 8.58749 20.2559 10 20.2559H14C15.4125 20.2559 16.4268 20.2553 17.2229 20.1902C18.0103 20.1259 18.518 20.0023 18.9295 19.7926C19.7291 19.3852 20.3793 18.735 20.7868 17.9353C20.9964 17.5239 21.12 17.0162 21.1844 16.2288C21.2494 15.4326 21.25 14.4184 21.25 13.0059V11.0059C21.25 9.59335 21.2494 8.57908 21.1844 7.78294C21.12 6.99556 20.9964 6.48783 20.7868 6.0764C20.3793 5.27671 19.7291 4.62654 18.9295 4.21908C18.518 4.00945 18.0103 3.88582 17.2229 3.82149C16.4268 3.75644 15.4125 3.75586 14 3.75586H10C8.58749 3.75586 7.57322 3.75644 6.77708 3.82149ZM5.37596 7.58983C5.60573 7.24519 6.07138 7.15206 6.41603 7.38182L7.97842 8.42342C9.63123 9.52529 10.3041 9.96054 11.0096 10.1296C11.6606 10.2856 12.3394 10.2856 12.9904 10.1296C13.6959 9.96054 14.3688 9.52529 16.0216 8.42342L17.584 7.38182C17.9286 7.15206 18.3943 7.24519 18.624 7.58983C18.8538 7.93448 18.7607 8.40013 18.416 8.6299L16.8536 9.6715C16.8086 9.70153 16.764 9.73124 16.72 9.7606C15.2448 10.7444 14.3382 11.3491 13.34 11.5883C12.4591 11.7994 11.5409 11.7994 10.66 11.5883C9.66183 11.3491 8.75518 10.7444 7.27999 9.7606C7.23596 9.73123 7.19143 9.70153 7.14637 9.6715L5.58397 8.6299C5.23933 8.40013 5.1462 7.93448 5.37596 7.58983Z" fill="#171717"/>
</mask>
<g mask="url(#mask0_14215_4661)">
<rect width="24" height="24" transform="translate(0 0.505859)" fill="url(#paint0_linear_14215_4661)"/>
</g>
<defs>
<linearGradient id="paint0_linear_14215_4661" x1="39.2276" y1="20.7818" x2="39.6815" y2="0.906298" gradientUnits="userSpaceOnUse">
<stop stop-color="#2240A4"/>
<stop offset="1" stop-color="#0078E1"/>
</linearGradient>
</defs>
</svg>