<svg width="24" height="25" viewBox="0 0 24 25" fill="none" xmlns="http://www.w3.org/2000/svg">
<path fill-rule="evenodd" clip-rule="evenodd" d="M11.9998 3.32373C11.8451 3.32373 11.7245 3.34057 11.669 3.35578C11.4462 3.41693 11.3342 3.49393 10.8645 3.86566C9.72825 4.76488 8.18645 6.1583 6.93394 7.90887C5.68038 9.66093 4.75 11.7231 4.75 13.9774C4.75 16.4947 5.66985 18.3253 7.00337 19.5326C8.34965 20.7514 10.1636 21.3756 12 21.3756C13.8364 21.3756 15.6504 20.7515 16.9966 19.5326C18.3301 18.3253 19.25 16.4947 19.25 13.9774C19.25 11.7231 18.3196 9.66092 17.0659 7.90885C15.8133 6.15827 14.2714 4.76485 13.1351 3.86563C12.6654 3.49391 12.5534 3.41691 12.3305 3.35577C12.2751 3.34056 12.1545 3.32373 11.9998 3.32373ZM11.9998 1.82373C12.2314 1.82373 12.4972 1.84607 12.7274 1.90922C13.2689 2.05778 13.6047 2.32388 14.0175 2.65099C14.0335 2.6637 14.0497 2.6765 14.066 2.68939C15.2646 3.63791 16.9224 5.13051 18.2858 7.03599C19.6481 8.93998 20.75 11.3039 20.75 13.9774C20.75 16.8923 19.6699 19.1358 18.0034 20.6446C16.3496 22.1418 14.1636 22.8756 12 22.8756C9.83643 22.8756 7.65035 22.1418 5.99663 20.6446C4.33015 19.1358 3.25 16.8922 3.25 13.9774C3.25 11.3039 4.35177 8.94004 5.71403 7.03605C7.07736 5.13058 8.73507 3.63798 9.93357 2.68945C9.94986 2.67656 9.96602 2.66376 9.98206 2.65104C10.3949 2.32393 10.7307 2.05781 11.2721 1.90925C11.5023 1.84608 11.7681 1.82373 11.9998 1.82373Z" fill="#2563EB"/>
</svg>
