<svg width="24" height="24" viewBox="0 0 24 24" fill="none" xmlns="http://www.w3.org/2000/svg">
<path fill-rule="evenodd" clip-rule="evenodd" d="M15.5547 2.70835C15.205 2.53504 14.7944 2.53504 14.4447 2.70835C14.2887 2.78565 14.1181 2.9422 13.53 3.53027C12.942 4.11834 12.7854 4.28891 12.7081 4.44492C12.5348 4.79464 12.5348 5.20524 12.7081 5.55496C12.7854 5.71097 12.942 5.88154 13.53 6.46961L15.5297 8.46925C15.5295 8.46913 15.5298 8.46937 15.5297 8.46925C15.5298 8.46937 15.5303 8.46985 15.5304 8.46997L17.53 10.4696C18.1181 11.0577 18.2887 11.2142 18.4447 11.2915C18.7944 11.4648 19.205 11.4648 19.5547 11.2915C19.7107 11.2142 19.8813 11.0577 20.4694 10.4696C21.0574 9.88154 21.214 9.71097 21.2913 9.55496C21.4646 9.20524 21.4646 8.79464 21.2913 8.44492C21.214 8.28891 21.0574 8.11834 20.4694 7.53027L18.4697 5.53063C18.4696 5.53051 18.4698 5.53075 18.4697 5.53063C18.4696 5.53051 18.4691 5.53003 18.469 5.52991L16.4694 3.53027C15.8813 2.9422 15.7107 2.78565 15.5547 2.70835ZM18.9997 3.93928L17.53 2.46961C17.501 2.44058 17.4724 2.41194 17.4442 2.38368C16.9841 1.92285 16.628 1.56611 16.2207 1.36432C15.4514 0.983053 14.548 0.983053 13.7787 1.36432C13.3714 1.56611 13.0153 1.92285 12.5552 2.38368C12.527 2.41194 12.4984 2.44059 12.4694 2.46961C12.4403 2.49864 12.4117 2.52723 12.3834 2.55544C11.9226 3.01552 11.5659 3.37169 11.3641 3.7789C10.9828 4.54829 10.9828 5.4516 11.3641 6.22098C11.5659 6.6282 11.9226 6.98436 12.3834 7.44443C12.4117 7.47264 12.4403 7.50124 12.4694 7.53027L13.939 8.99994L8.9997 13.9393L7.53003 12.4696C7.501 12.4406 7.4724 12.4119 7.44419 12.3837C6.98411 11.9228 6.62795 11.5661 6.22074 11.3643C5.45135 10.9831 4.54804 10.9831 3.77865 11.3643C3.37144 11.5661 3.01528 11.9229 2.5552 12.3837C2.52699 12.4119 2.49839 12.4406 2.46937 12.4696C2.44034 12.4986 2.41169 12.5272 2.38344 12.5554C1.92261 13.0155 1.56586 13.3717 1.36407 13.7789C0.982809 14.5483 0.982809 15.4516 1.36407 16.221C1.56586 16.6282 1.92261 16.9844 2.38344 17.4444C2.41169 17.4726 2.44034 17.5012 2.46937 17.5303L3.93904 18.9999L2.96937 19.9696C2.67647 20.2625 2.67647 20.7374 2.96937 21.0303C3.26226 21.3232 3.73713 21.3232 4.03003 21.0303L4.9997 20.0606L6.46937 21.5303C6.49839 21.5593 6.527 21.5879 6.55521 21.6162C7.01528 22.077 7.37144 22.4338 7.77865 22.6356C8.54804 23.0168 9.45135 23.0168 10.2207 22.6356C10.6279 22.4338 10.9841 22.077 11.4442 21.6162C11.4724 21.588 11.501 21.5593 11.53 21.5303C11.5591 21.5012 11.5877 21.4727 11.6159 21.4444C12.0768 20.9844 12.4335 20.6282 12.6353 20.221C13.0166 19.4516 13.0166 18.5483 12.6353 17.7789C12.4335 17.3717 12.0768 17.0155 11.616 16.5554C11.5877 16.5272 11.5591 16.4986 11.53 16.4696L10.0604 14.9999L14.9997 10.0606L16.4694 11.5303C16.4984 11.5593 16.527 11.5879 16.5552 11.6162C17.0153 12.077 17.3714 12.4338 17.7787 12.6356C18.548 13.0168 19.4514 13.0168 20.2207 12.6356C20.628 12.4338 20.9841 12.077 21.4442 11.6162C21.4724 11.5879 21.501 11.5593 21.53 11.5303C21.5591 11.5012 21.5877 11.4726 21.616 11.4444C22.0768 10.9844 22.4335 10.6282 22.6353 10.221C23.0166 9.4516 23.0166 8.54828 22.6353 7.7789C22.4335 7.37169 22.0768 7.01553 21.616 6.55545C21.5877 6.52724 21.5591 6.49864 21.53 6.46961L20.0604 4.99994L21.03 4.03027C21.3229 3.73738 21.3229 3.26251 21.03 2.96961C20.7371 2.67672 20.2623 2.67672 19.9694 2.96961L18.9997 3.93928ZM6.46937 13.5303C5.8813 12.9422 5.71073 12.7857 5.55472 12.7083C5.205 12.535 4.7944 12.535 4.44468 12.7083C4.28867 12.7857 4.1181 12.9422 3.53003 13.5303C2.94196 14.1183 2.78541 14.2889 2.7081 14.4449C2.5348 14.7946 2.5348 15.2052 2.7081 15.555C2.78541 15.711 2.94196 15.8815 3.53003 16.4696L5.52941 18.469C5.5292 18.4688 5.52961 18.4692 5.52941 18.469C5.52961 18.4692 5.53044 18.47 5.53065 18.4702L7.53003 20.4696C8.1181 21.0577 8.28867 21.2142 8.44468 21.2915C8.7944 21.4648 9.205 21.4648 9.55472 21.2915C9.71073 21.2142 9.8813 21.0577 10.4694 20.4696C11.0574 19.8815 11.214 19.711 11.2913 19.555C11.4646 19.2052 11.4646 18.7946 11.2913 18.4449C11.214 18.2889 11.0574 18.1183 10.4694 17.5303L6.46937 13.5303Z" fill="#255EF3"/>
</svg>
