<svg width="16" height="16" viewBox="0 0 16 16" fill="none" xmlns="http://www.w3.org/2000/svg">
<path fill-rule="evenodd" clip-rule="evenodd" d="M2.12 6.13815C2.41167 5.95622 2.74237 5.79348 3.10091 5.65006C3.68054 5.41821 4.35334 5.22874 5.09159 5.09086C5.22947 4.35261 5.41894 3.67981 5.65079 3.10018C5.79421 2.74164 5.95695 2.41093 6.13888 2.11927C4.23051 2.72289 2.72362 4.22977 2.12 6.13815ZM8.00065 0.833252C4.04261 0.833252 0.833984 4.04188 0.833984 7.99992C0.833984 11.958 4.04261 15.1666 8.00065 15.1666C11.9587 15.1666 15.1673 11.958 15.1673 7.99992C15.1673 4.04188 11.9587 0.833252 8.00065 0.833252ZM8.00065 1.83325C7.81424 1.83325 7.58607 1.92564 7.32594 2.20071C7.06481 2.47683 6.80661 2.90322 6.57927 3.47157C6.40864 3.89814 6.26092 4.39079 6.14301 4.93492C6.73651 4.86843 7.3596 4.83325 8.00065 4.83325C8.6417 4.83325 9.2648 4.86843 9.85829 4.93492C9.74039 4.39079 9.59266 3.89814 9.42203 3.47157C9.19469 2.90322 8.93649 2.47683 8.67536 2.20071C8.41523 1.92564 8.18706 1.83325 8.00065 1.83325ZM10.9097 5.09086C10.7718 4.35261 10.5824 3.67981 10.3505 3.10018C10.2071 2.74164 10.0444 2.41093 9.86242 2.11927C11.7708 2.72289 13.2777 4.22977 13.8813 6.13815C13.5896 5.95621 13.2589 5.79348 12.9004 5.65006C12.3208 5.41821 11.648 5.22874 10.9097 5.09086ZM10.0365 5.96411C9.40008 5.87961 8.71569 5.83325 8.00065 5.83325C7.28562 5.83325 6.60122 5.87961 5.96484 5.96411C5.88035 6.60049 5.83398 7.28488 5.83398 7.99992C5.83398 8.71496 5.88035 9.39935 5.96484 10.0357C6.60122 10.1202 7.28562 10.1666 8.00065 10.1666C8.71569 10.1666 9.40008 10.1202 10.0365 10.0357C10.121 9.39935 10.1673 8.71496 10.1673 7.99992C10.1673 7.28488 10.121 6.60049 10.0365 5.96411ZM11.0656 9.85756C11.1321 9.26406 11.1673 8.64097 11.1673 7.99992C11.1673 7.35887 11.1321 6.73577 11.0656 6.14228C11.6098 6.26019 12.1024 6.40791 12.529 6.57854C13.0974 6.80588 13.5237 7.06408 13.7999 7.32521C14.0749 7.58534 14.1673 7.81351 14.1673 7.99992C14.1673 8.18633 14.0749 8.4145 13.7999 8.67463C13.5237 8.93576 13.0974 9.19396 12.529 9.4213C12.1024 9.59193 11.6098 9.73965 11.0656 9.85756ZM9.85829 11.0649C9.2648 11.1314 8.6417 11.1666 8.00065 11.1666C7.3596 11.1666 6.73651 11.1314 6.14301 11.0649C6.26092 11.609 6.40864 12.1017 6.57927 12.5283C6.80661 13.0966 7.06481 13.523 7.32594 13.7991C7.58607 14.0742 7.81424 14.1666 8.00065 14.1666C8.18706 14.1666 8.41523 14.0742 8.67536 13.7991C8.93649 13.523 9.19469 13.0966 9.42203 12.5283C9.59266 12.1017 9.74039 11.609 9.85829 11.0649ZM9.86242 13.8806C10.0444 13.5889 10.2071 13.2582 10.3505 12.8997C10.5824 12.32 10.7718 11.6472 10.9097 10.909C11.648 10.7711 12.3208 10.5816 12.9004 10.3498C13.2589 10.2064 13.5896 10.0436 13.8813 9.86169C13.2777 11.7701 11.7708 13.2769 9.86242 13.8806ZM6.13888 13.8806C4.23051 13.2769 2.72362 11.7701 2.12 9.86169C2.41167 10.0436 2.74237 10.2064 3.10091 10.3498C3.68054 10.5816 4.35334 10.7711 5.09159 10.909C5.22947 11.6472 5.41894 12.32 5.65079 12.8997C5.79421 13.2582 5.95695 13.5889 6.13888 13.8806ZM4.93565 9.85756C4.39152 9.73965 3.89888 9.59193 3.4723 9.4213C2.90395 9.19396 2.47756 8.93576 2.20144 8.67463C1.92637 8.4145 1.83398 8.18633 1.83398 7.99992C1.83398 7.81351 1.92637 7.58534 2.20144 7.32521C2.47756 7.06408 2.90395 6.80588 3.4723 6.57854C3.89888 6.40791 4.39152 6.26019 4.93565 6.14228C4.86916 6.73577 4.83398 7.35887 4.83398 7.99992C4.83398 8.64097 4.86916 9.26406 4.93565 9.85756Z" fill="white"/>
</svg>
