<svg width="24" height="25" viewBox="0 0 24 25" fill="none" xmlns="http://www.w3.org/2000/svg">
<path fill-rule="evenodd" clip-rule="evenodd" d="M6.37873 2.83649C6.1967 2.7678 5.96004 2.756 5.08755 2.756C4.57784 2.756 4.24278 2.75665 3.98154 2.77927C3.73387 2.80071 3.6061 2.83859 3.50994 2.88631C3.25276 3.01395 2.98201 3.31992 2.88662 3.59072C2.80187 3.83134 2.81359 4.06577 2.92764 4.99592C3.2307 7.46745 3.9125 9.71099 4.92198 11.6865L6.32046 10.0245C7.12012 9.0741 7.41832 8.70876 7.59553 8.30782C7.76146 7.93236 7.85477 7.52887 7.87052 7.11868C7.88733 6.68064 7.77979 6.22148 7.47855 5.01652L7.35626 4.52737C7.14465 3.68092 7.07581 3.45419 6.96503 3.29425C6.82057 3.0857 6.61609 2.92605 6.37873 2.83649ZM5.71338 13.0758L7.46822 10.9902C7.49335 10.9604 7.51816 10.9309 7.54267 10.9018C8.24242 10.0705 8.69308 9.5351 8.96751 8.91418C9.21003 8.36543 9.3464 7.77571 9.36941 7.17621C9.39545 6.49784 9.22558 5.81897 8.96183 4.76489C8.95259 4.72797 8.94323 4.69058 8.93377 4.65272L8.81148 4.16356C8.80129 4.1228 8.79127 4.08256 8.78137 4.04284C8.61538 3.37631 8.4856 2.85519 8.19811 2.44014C7.88032 1.98134 7.43045 1.63009 6.90827 1.43307C6.43589 1.25483 5.89885 1.25531 5.21197 1.25593C5.17103 1.25597 5.12956 1.256 5.08755 1.256L5.05704 1.256C4.58605 1.25599 4.18573 1.25598 3.85215 1.28486C3.49782 1.31554 3.16705 1.38192 2.84311 1.54268C2.23606 1.84395 1.69697 2.45318 1.47182 3.09239C1.25643 3.70388 1.331 4.30667 1.42383 5.05716C1.42878 5.09717 1.43378 5.1376 1.43879 5.17848C1.814 8.23842 2.73841 11.0024 4.14605 13.3872C5.66259 15.9565 7.73381 18.0749 10.2614 19.6433C12.7255 21.1722 15.6126 22.1721 18.8263 22.5662C18.8672 22.5712 18.9076 22.5762 18.9476 22.5812C19.6982 22.674 20.3011 22.7486 20.9126 22.5332C21.5518 22.3081 22.1611 21.769 22.4623 21.1619C22.6239 20.8364 22.6898 20.502 22.7202 20.1442C22.749 19.8061 22.749 19.3987 22.749 18.9175V18.8872C22.749 18.8467 22.749 18.8067 22.7491 18.7673C22.7497 18.0959 22.7502 17.569 22.5719 17.0967C22.3749 16.5746 22.0237 16.1247 21.5649 15.8069C21.1498 15.5194 20.6287 15.3896 19.9622 15.2236C19.9224 15.2137 19.8822 15.2037 19.8414 15.1935L19.1332 15.0165C19.0979 15.0077 19.0632 14.999 19.0288 14.9904C18.0443 14.744 17.4101 14.5853 16.7727 14.5989C16.2092 14.611 15.6522 14.7232 15.128 14.9304C14.5351 15.1647 14.0119 15.5567 13.1996 16.1651C13.1713 16.1863 13.1426 16.2078 13.1136 16.2296L10.6237 18.0939C8.64259 16.7817 6.98713 15.0904 5.71338 13.0758ZM12.0164 18.925C14.0644 20.0216 16.4107 20.7587 19.0089 21.0773C19.9392 21.1914 20.1737 21.2031 20.4143 21.1184C20.6851 21.023 20.9911 20.7523 21.1187 20.4951C21.1657 20.4005 21.204 20.2713 21.2256 20.017C21.2484 19.75 21.249 19.4068 21.249 18.8872C21.249 18.0371 21.2374 17.8088 21.1685 17.6263C21.079 17.3889 20.9193 17.1844 20.7108 17.04C20.5508 16.9292 20.3241 16.8604 19.4776 16.6487L18.7694 16.4717C17.6448 16.1905 17.2164 16.0898 16.8047 16.0986C16.4191 16.1068 16.0381 16.1836 15.6794 16.3254C15.2964 16.4768 14.9405 16.7355 14.0126 17.4303L12.0164 18.925Z" fill="url(#paint0_linear_14402_4681)"/>
<defs>
<linearGradient id="paint0_linear_14402_4681" x1="36.3379" y1="19.8011" x2="36.743" y2="2.06462" gradientUnits="userSpaceOnUse">
<stop stop-color="#2240A4"/>
<stop offset="1" stop-color="#0078E1"/>
</linearGradient>
</defs>
</svg>
