<svg width="24" height="25" viewBox="0 0 24 25" fill="none" xmlns="http://www.w3.org/2000/svg">
<path fill-rule="evenodd" clip-rule="evenodd" d="M11.367 1.75195H12.633C13.7251 1.75195 14.5906 1.75194 15.2883 1.80894C16.0017 1.86723 16.6053 1.98883 17.1565 2.26967C18.0502 2.72507 18.7769 3.45173 19.2323 4.3455C19.5131 4.89667 19.6347 5.5003 19.693 6.21369C19.75 6.9113 19.75 7.7768 19.75 8.86893V16.135C19.75 17.2271 19.75 18.0926 19.693 18.7902C19.6347 19.5036 19.5131 20.1072 19.2323 20.6584C18.7769 21.5522 18.0502 22.2788 17.1565 22.7342C16.6053 23.0151 16.0017 23.1367 15.2883 23.195C14.5906 23.252 13.7252 23.252 12.633 23.252H11.367C10.2748 23.252 9.40935 23.252 8.71173 23.195C7.99835 23.1367 7.39472 23.0151 6.84355 22.7342C5.94978 22.2788 5.22312 21.5522 4.76772 20.6584C4.48688 20.1072 4.36527 19.5036 4.30699 18.7902C4.24999 18.0926 4.24999 17.2271 4.25 16.135V8.86895C4.24999 7.77681 4.24999 6.91131 4.30699 6.21369C4.36527 5.5003 4.48688 4.89667 4.76772 4.3455C5.22312 3.45173 5.94978 2.72507 6.84355 2.26967C7.39472 1.98884 7.99834 1.86723 8.71173 1.80894C9.40936 1.75194 10.2749 1.75195 11.367 1.75195ZM8.83388 3.30396C8.21325 3.35467 7.829 3.45105 7.52453 3.60618C6.913 3.91777 6.41582 4.41496 6.10423 5.02648C5.94909 5.33096 5.85271 5.71521 5.80201 6.33583C5.75058 6.96522 5.75 7.76947 5.75 8.90195V16.102C5.75 17.2344 5.75058 18.0387 5.80201 18.6681C5.85271 19.2887 5.94909 19.6729 6.10423 19.9774C6.41582 20.5889 6.913 21.0861 7.52453 21.3977C7.829 21.5529 8.21325 21.6492 8.83388 21.6999C9.46326 21.7514 10.2675 21.752 11.4 21.752H12.6C13.7325 21.752 14.5367 21.7514 15.1661 21.6999C15.7867 21.6492 16.171 21.5529 16.4755 21.3977C17.087 21.0861 17.5842 20.5889 17.8958 19.9774C18.0509 19.6729 18.1473 19.2887 18.198 18.6681C18.2494 18.0387 18.25 17.2344 18.25 16.102V8.90195C18.25 7.76947 18.2494 6.96522 18.198 6.33583C18.1473 5.71521 18.0509 5.33096 17.8958 5.02648C17.5842 4.41496 17.087 3.91777 16.4755 3.60618C16.171 3.45105 15.7867 3.35467 15.1661 3.30396C14.5367 3.25254 13.7325 3.25195 12.6 3.25195H11.4C10.2675 3.25195 9.46326 3.25254 8.83388 3.30396ZM10.75 6.50195C10.75 5.8116 11.3096 5.25195 12 5.25195C12.6904 5.25195 13.25 5.8116 13.25 6.50195C13.25 7.19231 12.6904 7.75195 12 7.75195C11.3096 7.75195 10.75 7.19231 10.75 6.50195ZM9.25 19.502C9.25 19.0877 9.58579 18.752 10 18.752H14C14.4142 18.752 14.75 19.0877 14.75 19.502C14.75 19.9162 14.4142 20.252 14 20.252H10C9.58579 20.252 9.25 19.9162 9.25 19.502Z" fill="#2563EB"/>
</svg>
