<svg width="25" height="24" viewBox="0 0 25 24" fill="none" xmlns="http://www.w3.org/2000/svg">
<path fill-rule="evenodd" clip-rule="evenodd" d="M12.1789 1.24951H17.0572C17.4715 1.24951 17.8072 1.5853 17.8072 1.99951C17.8072 2.41373 17.4715 2.74951 17.0572 2.74951H12.2128C10.5203 2.74951 9.29597 2.7501 8.33308 2.82877C7.37895 2.90672 6.74773 3.0576 6.22934 3.32173C5.24149 3.82506 4.43834 4.62821 3.93501 5.61606C3.67088 6.13445 3.52 6.76567 3.44205 7.7198C3.36338 8.68268 3.36279 9.90698 3.36279 11.5995V12.3995C3.36279 14.092 3.36338 15.3163 3.44205 16.2792C3.52 17.2334 3.67088 17.8646 3.93501 18.383C4.43834 19.3708 5.24149 20.174 6.22934 20.6773C6.74773 20.9414 7.37895 21.0923 8.33308 21.1703C9.29597 21.2489 10.5203 21.2495 12.2128 21.2495H13.0128C14.7053 21.2495 15.9296 21.2489 16.8925 21.1703C17.8466 21.0923 18.4779 20.9414 18.9962 20.6773C19.9841 20.174 20.7872 19.3708 21.2906 18.383C21.5547 17.8646 21.7056 17.2334 21.7835 16.2792C21.8622 15.3163 21.8628 14.092 21.8628 12.3995V10.8884C21.8628 10.4742 22.1986 10.1384 22.6128 10.1384C23.027 10.1384 23.3628 10.4742 23.3628 10.8884V12.4335C23.3628 14.0849 23.3628 15.3703 23.2786 16.4014C23.193 17.4483 23.0169 18.2989 22.6271 19.0639C21.9799 20.334 20.9473 21.3667 19.6772 22.0138C18.9121 22.4036 18.0615 22.5797 17.0147 22.6653C15.9836 22.7495 14.6982 22.7495 13.0468 22.7495H12.1788C10.5274 22.7495 9.24201 22.7495 8.21093 22.6653C7.16404 22.5797 6.31344 22.4036 5.54836 22.0138C4.27826 21.3667 3.24564 20.334 2.5985 19.0639C2.20867 18.2989 2.03256 17.4483 1.94703 16.4014C1.86279 15.3703 1.86279 14.0849 1.86279 12.4335V11.5656C1.86279 9.91413 1.86279 8.62873 1.94703 7.59765C2.03256 6.55076 2.20867 5.70016 2.5985 4.93508C3.24564 3.66498 4.27826 2.63236 5.54836 1.98522C6.31344 1.59539 7.16404 1.41928 8.21093 1.33375C9.24202 1.2495 10.5274 1.24951 12.1789 1.24951ZM23.1431 3.46918C23.436 3.76207 23.436 4.23695 23.1431 4.52984L13.1431 14.5298C12.8502 14.8227 12.3754 14.8227 12.0825 14.5298L9.08246 11.5298C8.78957 11.2369 8.78957 10.7621 9.08246 10.4692C9.37536 10.1763 9.85023 10.1763 10.1431 10.4692L12.6128 12.9389L22.0825 3.46918C22.3754 3.17629 22.8502 3.17629 23.1431 3.46918Z" fill="white"/>
</svg>
