<svg width="40" height="40" viewBox="0 0 24 24" fill="none" xmlns="http://www.w3.org/2000/svg">
<path fill-rule="evenodd" clip-rule="evenodd" d="M11.5661 1.25H12.4339C14.0854 1.25 15.3708 1.24999 16.4019 1.33424C17.4488 1.41977 18.2994 1.59588 19.0644 1.98571C20.3345 2.63285 21.3671 3.66547 22.0143 4.93556C22.4041 5.70065 22.5802 6.55124 22.6658 7.59814C22.75 8.62922 22.75 9.91461 22.75 11.566V12.434C22.75 14.0854 22.75 15.3708 22.6658 16.4019C22.5802 17.4488 22.4041 18.2994 22.0143 19.0644C21.3671 20.3345 20.3345 21.3671 19.0644 22.0143C18.2994 22.4041 17.4488 22.5802 16.4019 22.6658C15.3708 22.75 14.0854 22.75 12.434 22.75H11.566C9.91461 22.75 8.62922 22.75 7.59814 22.6658C6.55124 22.5802 5.70065 22.4041 4.93556 22.0143C3.66547 21.3671 2.63285 20.3345 1.98571 19.0644C1.59588 18.2994 1.41977 17.4488 1.33424 16.4019C1.24999 15.3708 1.25 14.0854 1.25 12.4339V11.5661C1.25 9.91462 1.24999 8.62922 1.33424 7.59814C1.41977 6.55124 1.59588 5.70065 1.98571 4.93556C2.63285 3.66547 3.66547 2.63285 4.93556 1.98571C5.70065 1.59588 6.55124 1.41977 7.59814 1.33424C8.62922 1.24999 9.91462 1.25 11.5661 1.25ZM7.72029 2.82925C6.76615 2.90721 6.13493 3.05809 5.61655 3.32222C4.6287 3.82555 3.82555 4.6287 3.32222 5.61655C3.05809 6.13493 2.90721 6.76615 2.82925 7.72029C2.75058 8.68317 2.75 9.90747 2.75 11.6V12.4C2.75 14.0925 2.75058 15.3168 2.82925 16.2797C2.90721 17.2338 3.05809 17.8651 3.32222 18.3834C3.82555 19.3713 4.6287 20.1744 5.61655 20.6778C6.13493 20.9419 6.76615 21.0928 7.72029 21.1707C8.68317 21.2494 9.90747 21.25 11.6 21.25H12.4C14.0925 21.25 15.3168 21.2494 16.2797 21.1707C17.2338 21.0928 17.8651 20.9419 18.3834 20.6778C19.3713 20.1744 20.1744 19.3713 20.6778 18.3834C20.9419 17.8651 21.0928 17.2338 21.1707 16.2797C21.2494 15.3168 21.25 14.0925 21.25 12.4V11.6C21.25 9.90747 21.2494 8.68317 21.1707 7.72029C21.0928 6.76615 20.9419 6.13493 20.6778 5.61655C20.1744 4.6287 19.3713 3.82555 18.3834 3.32222C17.8651 3.05809 17.2338 2.90721 16.2797 2.82925C15.3168 2.75058 14.0925 2.75 12.4 2.75H11.6C9.90747 2.75 8.68317 2.75058 7.72029 2.82925ZM14 8.25C14.2508 8.25 14.4849 8.37533 14.624 8.58397L16.4014 11.25H18C18.4142 11.25 18.75 11.5858 18.75 12C18.75 12.4142 18.4142 12.75 18 12.75H16C15.7492 12.75 15.5151 12.6247 15.376 12.416L14 10.3521L10.624 15.416C10.4849 15.6247 10.2508 15.75 10 15.75C9.74924 15.75 9.51506 15.6247 9.37596 15.416L7.59861 12.75H6C5.58579 12.75 5.25 12.4142 5.25 12C5.25 11.5858 5.58579 11.25 6 11.25H8C8.25076 11.25 8.48494 11.3753 8.62404 11.584L10 13.6479L13.376 8.58397C13.5151 8.37533 13.7492 8.25 14 8.25Z" fill="#255EF3"/>
</svg>
