<svg width="25" height="24" viewBox="0 0 25 24" fill="none" xmlns="http://www.w3.org/2000/svg">
<path fill-rule="evenodd" clip-rule="evenodd" d="M13.559 2.86497C13.1452 2.7468 12.6833 2.74002 11.4665 2.74002H4.6665C3.97615 2.74002 3.4165 3.29966 3.4165 3.99002C3.4165 4.68038 3.97615 5.24002 4.6665 5.24002H16.1665L15.9865 5.00002C15.2564 4.02658 14.9739 3.66111 14.631 3.40099C14.31 3.1574 13.9465 2.97563 13.559 2.86497ZM18.0415 5.24003L17.1865 4.10002C17.1636 4.06947 17.141 4.03929 17.1186 4.00949C16.48 3.15756 16.0686 2.60885 15.5378 2.20606C15.0686 1.85003 14.5373 1.58438 13.9709 1.42264C13.3302 1.23965 12.6444 1.23979 11.5797 1.24001C11.5424 1.24001 11.5047 1.24002 11.4665 1.24002H4.6665C3.14772 1.24002 1.9165 2.47124 1.9165 3.99002L1.9165 17.2221C1.9165 18.035 1.91649 18.6906 1.95987 19.2215C2.00453 19.7681 2.09889 20.2483 2.32523 20.6925C2.68476 21.3981 3.25843 21.9718 3.96404 22.3313C4.40826 22.5576 4.8884 22.652 5.43504 22.6967C5.96594 22.74 6.62155 22.74 7.43438 22.74H17.8986C18.7115 22.74 19.3671 22.74 19.898 22.6967C20.4446 22.652 20.9247 22.5576 21.369 22.3313C22.0746 21.9718 22.6483 21.3981 23.0078 20.6925C23.2341 20.2483 23.3285 19.7681 23.3731 19.2215C23.4165 18.6906 23.4165 18.035 23.4165 17.2221V10.7579C23.4165 9.94507 23.4165 9.28946 23.3731 8.75855C23.3285 8.21192 23.2341 7.73177 23.0078 7.28756C22.6483 6.58195 22.0746 6.00827 21.369 5.64875C20.9247 5.42241 20.4446 5.32805 19.898 5.28338C19.3985 5.24258 18.7887 5.24016 18.0415 5.24003ZM4.6665 6.74002C4.21639 6.74002 3.79154 6.63188 3.4165 6.44017V17.19C3.4165 18.0425 3.41709 18.6367 3.45489 19.0993C3.49197 19.5532 3.5611 19.814 3.66174 20.0115C3.87745 20.4349 4.22166 20.7791 4.64503 20.9948C4.84254 21.0954 5.10331 21.1646 5.55718 21.2016C6.01982 21.2394 6.61405 21.24 7.4665 21.24H17.8665C18.719 21.24 19.3132 21.2394 19.7758 21.2016C20.2297 21.1646 20.4905 21.0954 20.688 20.9948C21.1113 20.7791 21.4556 20.4349 21.6713 20.0115C21.7719 19.814 21.841 19.5532 21.8781 19.0993C21.9073 18.7417 21.9143 18.3053 21.916 17.7318C19.9617 17.6029 18.4165 15.9769 18.4165 13.99C18.4165 12.0031 19.9617 10.3772 21.916 10.2483C21.9143 9.67473 21.9073 9.23838 21.8781 8.8807C21.841 8.42682 21.7719 8.16606 21.6713 7.96854C21.4556 7.54518 21.1113 7.20097 20.688 6.98526C20.4905 6.88462 20.2297 6.81549 19.7758 6.7784C19.3132 6.7406 18.719 6.74002 17.8665 6.74002H4.6665ZM21.9165 11.7538C20.7915 11.8781 19.9165 12.8319 19.9165 13.99C19.9165 15.1482 20.7915 16.1019 21.9165 16.2263V11.7538Z" fill="#2563EB"/>
</svg>
